<?xml version="1.0" ?><!DOCTYPE svg  PUBLIC '-//W3C//DTD SVG 1.1//EN'  'http://www.w3.org/Graphics/SVG/1.1/DTD/svg11.dtd'><svg enable-background="new 0 0 128 128" height="128px" id="Layer_1" version="1.1" viewBox="0 0 128 128" width="128px" xml:space="preserve" xmlns="http://www.w3.org/2000/svg" xmlns:xlink="http://www.w3.org/1999/xlink"><circle cx="64" cy="64" fill="#2896D2" r="64"/><g><path d="M24.453,40.455h-1.82c-1.042,0-1.965,0.115-2.742,0.341c-0.812,0.237-1.508,0.652-2.069,1.231   c-0.558,0.581-0.979,1.354-1.247,2.302c-0.263,0.908-0.395,2.082-0.395,3.488c0,2.005,0.072,3.903,0.216,5.641   c0.138,1.721,0.21,3.555,0.21,5.451c0,0.493-0.057,0.976-0.171,1.433c-0.107,0.424-0.305,0.805-0.589,1.133   c-0.286,0.333-0.7,0.61-1.229,0.827c-0.542,0.225-1.253,0.337-2.111,0.337c-0.278,0-0.506,0.226-0.506,0.504v1.716   c0,0.273,0.228,0.504,0.506,0.504c0.854,0,1.564,0.113,2.111,0.339c0.531,0.217,0.944,0.494,1.229,0.825   c0.284,0.33,0.481,0.729,0.587,1.18c0.115,0.495,0.174,0.997,0.174,1.491c0,1.825-0.072,3.625-0.21,5.345   c-0.144,1.729-0.216,3.625-0.216,5.641c0,1.401,0.133,2.576,0.395,3.488c0.271,0.951,0.689,1.727,1.247,2.303   c0.559,0.578,1.256,0.995,2.069,1.233c0.778,0.228,1.701,0.341,2.742,0.341h1.82c0.28,0,0.507-0.229,0.507-0.507v-1.558   c0-0.277-0.227-0.504-0.507-0.504h-1.66c-1.449,0-2.415-0.371-2.866-1.104c-0.5-0.804-0.755-2.12-0.755-3.912   c0-1.723,0.054-3.396,0.16-4.977c0.107-1.602,0.161-3.387,0.161-5.312c0-1.589-0.201-2.896-0.599-3.888   C18.58,65.01,18.048,64.41,17.311,64c0.737-0.403,1.266-0.985,1.581-1.734c0.4-0.952,0.604-2.28,0.604-3.947   c0-1.924-0.054-3.711-0.162-5.312c-0.106-1.561-0.16-3.236-0.16-4.976c0-1.789,0.254-3.105,0.755-3.914   c0.453-0.729,1.418-1.1,2.866-1.1h1.66c0.28,0,0.507-0.227,0.507-0.503V40.96C24.96,40.682,24.732,40.455,24.453,40.455z" fill="#FFFFFF"/><path d="M115.495,62.638c-0.86,0-1.571-0.113-2.112-0.338c-0.529-0.217-0.941-0.494-1.229-0.827   c-0.286-0.329-0.483-0.711-0.59-1.131c-0.112-0.456-0.17-0.938-0.17-1.434c0-1.905,0.068-3.739,0.211-5.45   c0.145-1.725,0.217-3.623,0.217-5.642c0-1.396-0.133-2.568-0.393-3.486c-0.272-0.951-0.693-1.727-1.248-2.303   c-0.562-0.578-1.26-0.992-2.072-1.23c-0.771-0.226-1.693-0.341-2.738-0.341h-1.823c-0.278,0-0.506,0.226-0.506,0.505v1.555   c0,0.277,0.228,0.504,0.506,0.504h1.662c1.447,0,2.412,0.37,2.865,1.099c0.503,0.813,0.756,2.13,0.756,3.913   c0,1.744-0.054,3.418-0.159,4.977c-0.107,1.618-0.161,3.405-0.161,5.312c0,1.668,0.214,2.999,0.634,3.955   c0.33,0.745,0.855,1.326,1.573,1.727c-0.719,0.408-1.247,1.006-1.577,1.782c-0.42,0.99-0.63,2.301-0.63,3.896   c0,1.906,0.056,3.692,0.161,5.312c0.107,1.558,0.159,3.229,0.159,4.977c0,1.79-0.253,3.105-0.756,3.91   c-0.453,0.729-1.417,1.103-2.865,1.103h-1.662c-0.278,0-0.506,0.229-0.506,0.508v1.557c0,0.279,0.228,0.506,0.506,0.506h1.823   c1.038,0,1.963-0.111,2.738-0.341c0.812-0.239,1.51-0.651,2.072-1.231c0.553-0.57,0.971-1.349,1.248-2.305   c0.26-0.918,0.393-2.092,0.393-3.486c0-2.017-0.072-3.912-0.217-5.642c-0.143-1.722-0.211-3.521-0.211-5.347   c0-0.499,0.059-1.002,0.172-1.49c0.104-0.455,0.305-0.854,0.588-1.18c0.283-0.329,0.695-0.607,1.229-0.827   c0.547-0.226,1.26-0.338,2.112-0.338c0.278,0,0.505-0.229,0.505-0.507v-1.714C116,62.865,115.773,62.638,115.495,62.638z" fill="#FFFFFF"/></g><g><path d="M39.281,51.591c5.259,0,5.854,1.711,5.893,5.345c0.002,0.203,0.167,0.367,0.371,0.367h3.935   c0.099,0,0.194-0.04,0.265-0.11c0.069-0.07,0.108-0.167,0.106-0.265c-0.085-6.384-1.795-9.844-10.569-9.844   C30.264,47.083,28.5,51.253,28.5,58.456V69.54c0,6.896,0.751,11.418,10.781,11.418c9.833,0,10.569-4.187,10.569-10.567   c0-0.205-0.166-0.371-0.371-0.371h-3.85c-0.204,0-0.37,0.166-0.37,0.371c0,4.879-0.551,6.021-5.978,6.021   c-5.113,0-5.977-1.705-5.977-6.823V58.415C33.304,53.463,33.818,51.591,39.281,51.591z" fill="#FFFFFF"/><path d="M67.035,61.093c-0.344-0.036-0.688-0.068-1.027-0.1c-3.732-0.351-6.68-0.629-6.68-4.441   c0-3.142,0.825-4.96,5.044-4.96c3.75,0,4.63,1.618,4.835,4.229c0.018,0.192,0.178,0.341,0.369,0.341l4.189,0.001   c0.102,0,0.197-0.042,0.27-0.116c0.068-0.073,0.105-0.173,0.1-0.274c-0.326-5.955-3.43-8.729-9.763-8.729   c-6.806,0-9.977,3.036-9.977,9.553c0,7.035,5.332,8.5,8.508,8.747l0.444,0.037c3.942,0.321,6.79,0.557,6.79,5.35   c0,3.653-0.76,5.512-4.918,5.512h-0.804c-4.352,0-5.096-2.419-5.257-4.524c-0.015-0.192-0.176-0.342-0.37-0.342h-4.359   c-0.102,0-0.199,0.042-0.269,0.115c-0.07,0.073-0.107,0.174-0.102,0.274c0.324,6.073,3.823,9.15,10.399,9.15h0.803   c6.846,0,9.768-3.107,9.768-10.398C75.027,64.801,72.338,61.629,67.035,61.093z" fill="#FFFFFF"/><path d="M92.508,61.093c-0.344-0.036-0.688-0.068-1.027-0.1c-3.732-0.351-6.682-0.629-6.682-4.441   c0-3.142,0.826-4.96,5.047-4.96c3.746,0,4.629,1.618,4.836,4.229c0.016,0.192,0.178,0.341,0.369,0.341l4.189,0.001   c0.102,0,0.199-0.042,0.27-0.116c0.07-0.073,0.105-0.172,0.102-0.274c-0.328-5.955-3.43-8.729-9.764-8.729   c-6.809,0-9.979,3.036-9.979,9.553c0,7.035,5.332,8.5,8.508,8.747l0.443,0.037c3.941,0.321,6.791,0.557,6.791,5.35   c0,3.653-0.762,5.512-4.92,5.512h-0.801c-4.354,0-5.098-2.419-5.26-4.525c-0.016-0.193-0.176-0.341-0.369-0.341h-4.357   c-0.104,0-0.199,0.042-0.271,0.115c-0.066,0.073-0.104,0.174-0.1,0.274c0.322,6.073,3.82,9.15,10.396,9.15h0.805   c6.846,0,9.766-3.107,9.766-10.398C100.5,64.801,97.812,61.629,92.508,61.093z" fill="#FFFFFF"/></g></svg>