<svg xmlns="http://www.w3.org/2000/svg" xmlns:xlink="http://www.w3.org/1999/xlink" xml:space="preserve" version="1.1" style="shape-rendering:geometricPrecision;text-rendering:geometricPrecision;image-rendering:optimizeQuality;" viewBox="0 0 696 686.25" fill-rule="evenodd" clip-rule="evenodd"><defs><style type="text/css">
   
    .fil0 {fill:black}
   
  </style></defs><g><path class="fil0" d="M613 136c-10,13 -23,30 -3,42 -3,-11 -2,-22 1,-33 -2,13 -1,24 0,33 16,-13 13,-33 2,-42z"/><path class="fil0" d="M579 164c12,2 30,4 25,23 -5,-8 -11,-14 -19,-18 8,6 14,12 18,19 -17,1 -25,-13 -24,-24z"/><path class="fil0" d="M605 128c-9,13 -21,30 -38,15 11,-1 20,-5 29,-11 -11,6 -21,9 -30,10 8,-19 27,-21 39,-14z"/><path class="fil0" d="M641 171c-6,9 -15,21 -27,11 8,-1 15,-4 22,-8 -8,4 -15,6 -22,7 6,-13 19,-15 27,-10z"/><path class="fil0" d="M632 208c-10,-2 -25,-6 -20,-21 4,7 9,13 16,17 -7,-6 -12,-12 -15,-18 14,0 21,12 19,22z"/><path class="fil0" d="M607 215c-7,-11 -15,-26 -31,-15 9,1 17,6 24,11 -8,-5 -17,-8 -24,-10 5,16 20,20 31,14z"/><path class="fil0" d="M567 168c7,9 16,21 2,30 2,-8 1,-15 -1,-23 2,9 1,16 0,23 -11,-9 -8,-23 -1,-30z"/><path class="fil0" d="M530 173c11,1 27,2 24,18 -5,-6 -11,-11 -19,-14 8,5 14,10 18,16 -15,1 -24,-10 -23,-20z"/><path class="fil0" d="M582 159c-9,5 -23,13 -29,-2 8,3 15,3 23,2 -9,0 -16,-1 -23,-3 11,-10 24,-5 29,3z"/><path class="fil0" d="M431 26c-7,11 -18,25 -2,35 -2,-9 -1,-18 1,-27 -1,11 -1,20 0,27 14,-11 10,-27 1,-35z"/><path class="fil0" d="M393 18c14,8 34,17 22,37 -3,-11 -9,-20 -17,-29 8,11 12,21 15,30 -20,-5 -26,-24 -20,-38z"/><path class="fil0" d="M354 37c9,4 22,10 14,23 -1,-7 -5,-13 -10,-18 5,6 8,12 10,18 -13,-3 -17,-15 -14,-23z"/><path class="fil0" d="M464 41c0,10 2,24 -13,24 5,-5 8,-11 10,-18 -3,7 -7,13 -11,18 -4,-13 5,-23 14,-24z"/><path class="fil0" d="M410 120c7,-11 15,-26 31,-15 -10,1 -17,6 -24,11 8,-5 17,-8 24,-10 -5,16 -20,19 -31,14z"/><path class="fil0" d="M380 38c6,8 16,21 2,29 2,-8 1,-15 -1,-23 1,9 1,17 0,23 -11,-9 -9,-23 -1,-29z"/><path class="fil0" d="M361 90c13,-5 31,-12 37,7 -9,-4 -19,-6 -29,-6 12,2 21,4 29,8 -16,10 -31,3 -37,-9z"/><path class="fil0" d="M349 66c10,-3 24,-8 28,7 -6,-4 -14,-6 -22,-6 9,2 16,4 22,7 -12,8 -24,1 -28,-8z"/><path class="fil0" d="M391 64c13,-5 31,-13 37,7 -9,-5 -18,-7 -28,-6 11,1 20,4 28,7 -15,11 -31,3 -37,-8z"/><path class="fil0" d="M429 82c-6,8 -15,20 -26,10 7,0 14,-3 20,-7 -8,3 -14,5 -21,6 6,-13 19,-14 27,-9z"/><path class="fil0" d="M405 83c-4,-7 -9,-16 -18,-9 5,1 10,3 14,7 -5,-4 -10,-6 -14,-7 3,10 12,12 18,9z"/><path class="fil0" d="M501 50c8,8 21,19 7,31 1,-9 -1,-17 -5,-24 3,9 4,17 4,24 -13,-8 -13,-23 -6,-31z"/><path class="fil0" d="M476 42c10,5 24,11 16,25 -2,-8 -7,-14 -12,-20 5,7 9,14 11,21 -15,-4 -19,-17 -15,-26z"/><path class="fil0" d="M472 88c-2,7 -6,17 4,20 -2,-5 -3,-10 -3,-15 1,6 2,11 4,15 6,-8 2,-17 -5,-20z"/><path class="fil0" d="M475 75c7,9 16,21 28,11 -8,-1 -15,-4 -22,-8 8,4 16,6 23,7 -6,-14 -20,-16 -29,-10z"/><path class="fil0" d="M481 117c14,-3 32,-7 26,-27 -5,9 -11,16 -20,21 9,-7 15,-15 19,-22 -18,0 -27,15 -25,28z"/><path class="fil0" d="M498 140c6,-11 15,-27 30,-16 -9,2 -16,6 -23,12 8,-6 16,-9 24,-11 -5,16 -20,20 -31,15z"/><path class="fil0" d="M560 119c-6,8 -16,20 -2,28 -2,-7 -1,-14 1,-22 -1,9 -1,16 0,22 11,-9 9,-22 1,-28z"/><path class="fil0" d="M575 101c-13,-5 -31,-12 -37,7 9,-5 18,-6 28,-6 -11,1 -20,4 -28,8 15,10 31,2 37,-9z"/><path class="fil0" d="M508 121c-10,-3 -24,-8 -28,7 6,-4 14,-5 21,-5 -8,1 -15,3 -21,6 12,8 24,2 28,-8z"/><path class="fil0" d="M541 65c-11,-1 -26,-3 -27,14 6,-6 13,-9 20,-11 -8,3 -14,7 -19,12 14,4 24,-5 26,-15z"/><path class="fil0" d="M506 107c6,7 13,18 23,9 -6,-1 -12,-3 -18,-7 7,3 13,5 19,6 -5,-12 -17,-13 -24,-8z"/><path class="fil0" d="M548 90c-8,6 -19,15 -28,2 8,2 15,1 22,-1 -9,1 -15,1 -22,0 9,-10 21,-8 28,-1z"/><path class="fil0" d="M664 261c-9,7 -22,18 -10,30 0,-8 3,-16 8,-23 -4,9 -6,16 -7,24 14,-7 15,-22 9,-31z"/><path class="fil0" d="M684 262c-7,3 -18,7 -13,18 2,-6 6,-10 10,-14 -4,5 -7,10 -9,14 11,-1 14,-11 12,-18z"/><path class="fil0" d="M696 313c-9,1 -20,3 -21,-9 4,4 10,6 16,7 -7,-2 -12,-5 -16,-8 11,-4 19,3 21,10z"/><path class="fil0" d="M691 287c-8,9 -20,23 -33,9 10,1 18,-2 26,-6 -10,3 -18,5 -26,5 8,-15 24,-15 33,-8z"/><path class="fil0" d="M680 331c-13,-4 -31,-10 -23,-29 4,10 10,17 18,23 -8,-8 -13,-16 -17,-24 18,2 25,18 22,30z"/><path class="fil0" d="M644 342c-7,-11 -16,-26 1,-34 -3,9 -3,17 -2,26 0,-10 1,-19 4,-26 11,12 6,28 -3,34z"/><path class="fil0" d="M578 296c-3,-11 -6,-25 10,-28 -5,7 -7,14 -8,21 2,-8 5,-15 9,-20 6,13 -2,24 -11,27z"/><path class="fil0" d="M618 274c14,0 33,0 31,20 -6,-8 -14,-13 -24,-16 10,5 18,11 24,17 -18,5 -30,-8 -31,-21z"/><path class="fil0" d="M615 250c-5,6 -13,15 -21,6 6,0 11,-1 16,-4 -6,2 -11,3 -16,3 5,-9 15,-9 21,-5z"/><path class="fil0" d="M635 250c-1,11 -3,25 12,25 -5,-5 -8,-12 -9,-19 2,8 6,14 10,19 5,-13 -3,-23 -13,-25z"/><path class="fil0" d="M244 169c-9,7 -22,18 -10,30 0,-8 3,-16 7,-23 -3,9 -5,16 -6,24 14,-7 15,-22 9,-31z"/><path class="fil0" d="M269 196c5,9 13,23 -2,29 3,-7 3,-15 2,-22 0,8 -1,16 -3,22 -10,-10 -5,-23 3,-29z"/><path class="fil0" d="M227 238c-5,-10 -13,-24 2,-31 -3,8 -3,16 -2,24 0,-9 1,-17 3,-24 10,12 6,25 -3,31z"/><path class="fil0" d="M189 231c4,-13 10,-32 29,-24 -9,4 -17,10 -23,18 8,-8 16,-13 24,-17 -2,19 -18,26 -30,23z"/><path class="fil0" d="M198 182c14,0 33,0 31,20 -6,-8 -14,-13 -24,-16 10,5 18,11 24,17 -18,5 -30,-8 -31,-21z"/><path class="fil0" d="M171 117c-6,7 -14,17 -24,7 7,0 13,-2 19,-5 -7,3 -13,4 -19,4 6,-11 18,-11 24,-6z"/><path class="fil0" d="M162 200c-10,-2 -24,-5 -25,10 5,-5 12,-7 19,-8 -8,2 -14,5 -19,9 12,6 23,-2 25,-11z"/><path class="fil0" d="M281 77c-5,11 -12,26 4,31 -3,-7 -4,-16 -4,-24 1,9 3,17 6,24 9,-12 3,-26 -6,-31z"/><path class="fil0" d="M299 68c-6,6 -14,15 -4,22 -1,-6 1,-11 3,-17 -2,7 -2,12 -2,17 9,-6 8,-16 3,-22z"/><path class="fil0" d="M335 113c-9,7 -21,16 -29,2 8,2 15,1 23,-1 -9,1 -16,1 -23,0 9,-11 23,-8 29,-1z"/><path class="fil0" d="M317 87c-4,13 -8,30 -25,24 8,-4 14,-11 19,-18 -7,8 -13,13 -20,17 0,-17 14,-25 26,-23z"/><path class="fil0" d="M245 110c13,-7 30,-16 38,3 -10,-4 -19,-5 -29,-3 11,0 21,1 29,4 -14,12 -31,7 -38,-4z"/><path class="fil0" d="M296 138c-3,-9 -7,-23 -20,-17 6,3 12,7 16,13 -6,-6 -11,-9 -17,-12 1,13 13,18 21,16z"/><path class="fil0" d="M250 81c4,9 8,23 22,16 -7,-2 -13,-7 -17,-12 6,5 12,9 18,12 -2,-14 -14,-19 -23,-16z"/><path class="fil0" d="M192 54c11,9 27,21 13,37 -1,-10 -4,-20 -10,-29 5,11 7,21 8,30 -17,-9 -19,-27 -11,-38z"/><path class="fil0" d="M229 77c-2,9 -5,22 -19,17 7,-3 11,-7 15,-13 -5,6 -10,10 -15,13 0,-13 10,-19 19,-17z"/><path class="fil0" d="M166 99c12,-7 29,-16 37,3 -9,-4 -19,-4 -28,-3 11,0 20,2 28,5 -14,12 -30,6 -37,-5z"/><path class="fil0" d="M165 69c4,11 9,25 23,18 -7,-2 -13,-7 -18,-13 7,6 13,10 19,13 -1,-15 -14,-20 -24,-18z"/><path class="fil0" d="M244 102c-9,6 -21,15 -30,2 8,1 16,1 23,-1 -9,1 -16,1 -23,-1 10,-11 23,-8 30,0z"/><path class="fil0" d="M183 143c13,-5 32,-12 23,-30 -4,9 -10,17 -17,23 7,-8 12,-16 16,-24 -19,2 -25,18 -22,31z"/><path class="fil0" d="M28 279c8,-6 19,-13 25,-1 -6,-2 -13,-2 -19,0 7,-1 14,0 19,1 -8,9 -20,6 -25,0z"/><path class="fil0" d="M9 287c14,4 34,8 27,29 -4,-10 -12,-17 -20,-23 8,8 15,16 19,24 -19,0 -28,-16 -26,-30z"/><path class="fil0" d="M58 295c2,10 5,23 -10,24 5,-5 7,-11 8,-18 -2,7 -5,13 -9,18 -5,-12 3,-21 11,-24z"/><path class="fil0" d="M0 344c7,-9 16,-21 28,-10 -8,0 -15,3 -22,7 8,-4 16,-6 22,-6 -6,13 -20,14 -28,9z"/><path class="fil0" d="M18 321c8,-3 19,-7 23,5 -6,-3 -12,-4 -18,-4 7,1 13,3 18,5 -10,6 -20,1 -23,-6z"/><path class="fil0" d="M71 319c-5,10 -13,23 -26,14 8,-2 15,-5 21,-10 -8,4 -15,7 -21,9 4,-14 17,-17 26,-13z"/><path class="fil0" d="M563 360c-5,-11 -12,-26 5,-32 -4,8 -5,16 -4,25 0,-10 2,-18 5,-25 9,13 4,27 -6,32z"/><path class="fil0" d="M581 368c-5,-6 -13,-14 -4,-22 0,6 1,12 3,17 -2,-6 -2,-12 -2,-17 9,7 8,17 3,22z"/><path class="fil0" d="M599 349c-3,-12 -7,-29 -25,-23 8,4 14,10 19,18 -6,-8 -13,-13 -20,-17 0,17 14,24 26,22z"/><path class="fil0" d="M530 330c10,5 24,13 31,-3 -8,4 -16,4 -24,3 9,0 17,-1 24,-4 -12,-10 -25,-5 -31,4z"/><path class="fil0" d="M567 285c7,11 16,25 0,34 2,-9 2,-18 0,-26 1,10 0,18 -2,26 -11,-12 -7,-27 2,-34z"/><path class="fil0" d="M532 356c4,-10 8,-23 22,-17 -7,3 -12,7 -17,13 6,-6 12,-10 18,-12 -2,13 -14,18 -23,16z"/><path class="fil0" d="M600 303c-12,1 -28,2 -26,19 5,-7 12,-12 20,-15 -8,5 -14,11 -19,16 16,3 25,-9 25,-20z"/><path class="fil0" d="M509 274c-1,10 -3,25 12,26 -5,-6 -8,-13 -9,-20 3,8 6,14 10,19 5,-13 -3,-23 -13,-25z"/><path class="fil0" d="M319 17c10,8 25,20 12,34 -1,-9 -4,-18 -9,-26 4,10 7,19 7,27 -16,-8 -17,-25 -10,-35z"/><path class="fil0" d="M352 41c-2,8 -4,19 -16,15 5,-2 10,-7 13,-12 -5,6 -9,9 -14,12 0,-12 10,-17 17,-15z"/><path class="fil0" d="M271 25c9,7 20,17 9,28 0,-8 -3,-15 -6,-22 3,9 4,16 5,23 -13,-7 -14,-21 -8,-29z"/><path class="fil0" d="M298 19c-7,12 -16,28 2,36 -4,-9 -4,-18 -3,-28 0,11 2,20 4,28 12,-13 7,-29 -3,-36z"/><path class="fil0" d="M356 17c0,11 0,26 16,25 -6,-6 -10,-12 -13,-19 4,7 9,13 14,18 3,-14 -7,-23 -17,-24z"/><path class="fil0" d="M333 109c5,-12 12,-27 -5,-33 4,8 5,16 4,25 -1,-10 -3,-18 -6,-25 -10,13 -3,27 7,33z"/><path class="fil0" d="M237 35c14,0 33,-1 32,19 -7,-7 -15,-12 -25,-15 10,5 18,10 24,17 -18,4 -30,-8 -31,-21z"/><path class="fil0" d="M216 66c8,-7 20,-16 29,-3 -8,-2 -16,-1 -23,2 9,-2 16,-2 23,-1 -9,11 -23,9 -29,2z"/><path class="fil0" d="M215 32c3,9 7,22 20,16 -7,-2 -12,-7 -16,-12 6,5 11,9 17,11 -2,-12 -13,-17 -21,-15z"/><path class="fil0" d="M269 81c8,-4 18,-10 10,-20 -1,6 -3,11 -7,16 3,-6 5,-12 6,-17 -10,4 -12,14 -9,21z"/><path class="fil0" d="M241 80c9,-1 20,-1 19,-13 -4,4 -9,8 -15,10 6,-4 11,-7 14,-11 -11,-2 -18,6 -18,14z"/><path class="fil0" d="M391 133c-8,10 -18,25 -32,13 9,-1 17,-5 25,-10 -10,5 -18,7 -26,8 7,-15 23,-17 33,-11z"/><path class="fil0" d="M342 100c12,11 28,26 11,41 0,-11 -3,-22 -8,-32 4,12 6,23 6,33 -18,-11 -18,-31 -9,-42z"/><path class="fil0" d="M378 178c-2,-13 -4,-30 -22,-26 8,5 13,12 18,20 -6,-9 -13,-15 -19,-19 -2,17 12,26 23,25z"/><path class="fil0" d="M100 120c13,-5 31,-13 37,7 -9,-5 -18,-7 -28,-6 11,1 20,4 28,7 -15,11 -31,3 -37,-8z"/><path class="fil0" d="M148 79c-7,9 -18,22 -3,32 -2,-9 -1,-17 2,-25 -2,9 -2,17 -1,25 13,-10 10,-25 2,-32z"/><path class="fil0" d="M112 91c4,10 9,25 24,18 -8,-3 -14,-7 -19,-14 7,6 13,11 20,13 -2,-14 -15,-20 -25,-17z"/><path class="fil0" d="M108 137c3,9 7,23 21,17 -7,-3 -12,-7 -17,-13 6,6 12,9 18,12 -2,-14 -13,-19 -22,-16z"/><path class="fil0" d="M73 150c12,9 27,20 38,3 -10,2 -20,1 -29,-1 11,1 20,1 29,-1 -12,-14 -29,-10 -38,-1z"/><path class="fil0" d="M72 190c5,-13 11,-32 29,-24 -9,4 -16,10 -22,18 8,-8 16,-13 23,-17 -1,19 -17,26 -30,23z"/><path class="fil0" d="M57 173c-2,10 -4,24 11,24 -5,-5 -8,-12 -9,-19 3,8 6,14 10,19 5,-13 -3,-22 -12,-24z"/><path class="fil0" d="M33 216c9,-11 21,-26 35,-11 -10,0 -19,3 -28,8 11,-4 20,-6 29,-7 -9,17 -26,17 -36,10z"/><path class="fil0" d="M105 207c-7,-9 -18,-22 -30,-10 8,0 16,3 24,7 -9,-3 -17,-5 -25,-6 7,15 22,15 31,9z"/><path class="fil0" d="M97 224c-8,1 -20,3 -21,-9 5,4 10,6 16,7 -6,-2 -11,-5 -15,-8 10,-4 18,2 20,10z"/><path class="fil0" d="M12 274c15,0 35,1 34,-21 -7,8 -16,13 -26,17 10,-6 19,-12 25,-18 -19,-5 -32,8 -33,22z"/><path class="fil0" d="M27 227c5,10 11,23 25,15 -8,-2 -14,-6 -20,-11 7,5 14,8 20,10 -3,-14 -16,-18 -25,-14z"/><path class="fil0" d="M61 272c4,-9 10,-21 -4,-26 3,7 4,14 3,20 0,-7 -2,-14 -4,-19 -8,10 -3,21 5,25z"/><path class="fil0" d="M74 305c9,-10 24,-23 8,-37 1,10 -2,20 -6,29 3,-11 5,-20 4,-29 -15,10 -15,27 -6,37z"/><path class="fil0" d="M73 316c8,-11 20,-26 35,-12 -10,0 -19,4 -27,9 10,-5 19,-7 28,-8 -8,17 -26,18 -36,11z"/><path class="fil0" d="M109 342c10,-10 24,-23 8,-36 1,10 -1,19 -6,28 4,-11 5,-20 5,-29 -16,10 -15,27 -7,37z"/><path class="fil0" d="M134 249c-5,11 -12,26 4,32 -4,-8 -5,-16 -4,-25 1,10 3,18 5,25 10,-13 4,-27 -5,-32z"/><path class="fil0" d="M104 269c-5,10 -12,26 5,31 -4,-7 -5,-16 -4,-24 0,9 2,17 5,24 10,-12 4,-26 -6,-31z"/><path class="fil0" d="M52 386c11,-1 26,-2 23,-18 -4,7 -10,11 -17,14 7,-4 12,-9 16,-15 -14,-1 -22,9 -22,19z"/><path class="fil0" d="M51 358c8,-3 19,-8 23,4 -6,-3 -11,-4 -18,-4 7,1 13,3 18,5 -10,7 -19,2 -23,-5z"/><path class="fil0" d="M67 336c1,10 2,25 18,23 -7,-5 -11,-11 -14,-18 5,7 10,13 15,17 2,-14 -9,-22 -19,-22z"/><path class="fil0" d="M81 402c10,-10 24,-23 9,-37 0,10 -2,20 -6,29 3,-11 4,-20 4,-29 -16,10 -15,27 -7,37z"/><path class="fil0" d="M117 379c-4,-10 -10,-23 -23,-16 7,2 13,6 18,12 -7,-6 -13,-9 -19,-11 3,13 15,18 24,15z"/><path class="fil0" d="M136 364c-8,-7 -18,-17 -28,-5 8,-1 15,0 21,3 -8,-2 -15,-3 -21,-2 8,11 21,10 28,4z"/><path class="fil0" d="M140 320c-2,-9 -5,-23 -18,-18 6,3 11,8 14,14 -5,-6 -10,-10 -15,-13 0,12 11,18 19,17z"/><path class="fil0" d="M185 345c-9,3 -22,9 -26,-5 6,3 13,4 20,4 -8,-1 -14,-2 -20,-5 11,-7 22,-2 26,6z"/><path class="fil0" d="M140 196c10,-10 24,-23 8,-37 1,10 -2,20 -6,29 3,-11 5,-20 4,-29 -15,10 -15,27 -6,37z"/><path class="fil0" d="M110 182c-2,10 -4,24 11,25 -5,-5 -8,-12 -9,-19 2,8 6,14 10,19 5,-13 -3,-23 -12,-25z"/><path class="fil0" d="M99 223c8,-9 17,-21 29,-9 -8,0 -16,2 -22,6 8,-3 15,-5 22,-5 -7,13 -20,14 -29,8z"/><path class="fil0" d="M675 232c-8,5 -18,11 -23,0 6,2 11,2 17,1 -6,0 -12,-1 -17,-2 8,-8 18,-5 23,1z"/><path class="fil0" d="M659 203c-4,12 -9,29 -26,22 8,-4 15,-10 21,-17 -8,7 -15,12 -22,15 2,-16 16,-23 27,-20z"/><path class="fil0" d="M657 256c-11,-3 -27,-8 -20,-24 3,8 8,14 15,19 -7,-7 -11,-13 -14,-20 15,1 22,15 19,25z"/><path class="fil0" d="M609 201c-1,9 -3,21 10,22 -4,-5 -7,-11 -8,-17 2,7 6,12 9,17 4,-12 -3,-20 -11,-22z"/><path class="fil0" d="M619 263c-3,-10 -7,-25 9,-28 -5,7 -7,14 -8,22 3,-9 6,-16 9,-21 7,13 -1,24 -10,27z"/><path class="fil0" d="M497 208c-7,9 -15,21 -27,11 8,-1 14,-4 21,-8 -8,4 -15,6 -22,6 6,-13 19,-14 28,-9z"/><path class="fil0" d="M524 195c-7,-11 -15,-26 -31,-15 10,1 17,6 24,11 -8,-5 -17,-8 -24,-10 5,16 20,20 31,14z"/><path class="fil0" d="M482 246c1,-8 3,-20 -9,-21 4,5 6,10 7,16 -2,-6 -5,-11 -8,-15 -4,10 2,18 10,20z"/><path class="fil0" d="M445 150c9,9 21,20 8,32 0,-9 -2,-17 -6,-25 3,9 5,18 5,25 -14,-8 -14,-23 -7,-32z"/><path class="fil0" d="M420 142c10,5 24,12 16,26 -2,-8 -6,-15 -12,-20 6,7 9,14 11,20 -15,-3 -18,-16 -15,-26z"/><path class="fil0" d="M416 173c7,10 17,25 31,13 -9,-1 -17,-4 -24,-10 9,5 17,7 25,8 -7,-15 -22,-17 -32,-11z"/><path class="fil0" d="M194 298c-3,-3 -8,1 -9,7 -2,6 1,21 11,17 2,0 3,0 5,1 10,3 17,-17 8,-25 -4,-3 -11,3 -15,0zm13 1c1,0 2,1 3,4 1,2 1,4 0,4 -1,1 -2,-1 -3,-3 -1,-2 -1,-4 0,-5z"/><path class="fil0" d="M187 159c4,-3 10,2 11,8 2,6 0,20 -11,20 -2,0 -3,-1 -5,-1 -1,-1 -3,1 -5,1 -12,0 -16,-19 -6,-27 4,-4 12,2 16,-1zm4 1c1,-1 3,1 4,3 1,3 1,5 0,6 -1,0 -3,-2 -4,-4 -1,-2 -1,-5 0,-5z"/><path class="fil0" d="M232 307c7,5 8,-4 14,6 2,3 1,10 -1,13 -3,4 -8,7 -13,7 -8,0 -15,-7 -15,-15 0,-8 9,-17 15,-11zm-3 0c1,1 -1,3 -2,3 -2,1 -4,1 -4,0 0,-1 1,-2 3,-3 1,-1 3,-1 3,0z"/><path class="fil0" d="M155 351c-7,5 -9,-4 -14,6 -2,3 -1,10 1,13 3,4 8,7 13,7 8,0 15,-7 15,-15 0,-8 -9,-17 -15,-11zm3 0c-1,1 0,3 2,3 2,1 3,1 4,0 0,-1 -1,-2 -3,-3 -1,-1 -3,-1 -3,0z"/><path class="fil0" d="M137 375c-9,2 -7,-7 -16,0 -3,3 -4,10 -3,12 1,6 4,10 9,12 8,3 16,-1 19,-9 3,-7 -1,-18 -9,-15zm2 1c-1,1 0,3 1,4 2,1 3,2 4,1 1,-1 0,-3 -1,-4 -2,-1 -3,-2 -4,-1z"/><path class="fil0" d="M195 257c-4,-3 -9,2 -10,7 -1,6 2,21 11,18 2,-1 3,0 6,0 9,4 16,-17 8,-24 -4,-3 -12,2 -15,-1zm12 2c1,-1 3,1 4,3 1,2 1,4 0,5 -1,0 -3,-1 -4,-3 -1,-3 -1,-5 0,-5z"/><path class="fil0" d="M288 197c-3,-3 -8,1 -10,7 -1,5 2,20 12,17 2,0 3,0 5,1 10,3 17,-17 8,-25 -4,-3 -11,2 -15,0zm13 1c1,0 2,1 3,3 1,3 1,5 0,5 -1,1 -2,-1 -3,-3 -1,-2 -1,-4 0,-5z"/><path class="fil0" d="M275 226c2,-4 7,-2 10,2 3,4 6,14 -2,17 -1,1 -2,0 -3,1 -1,0 -2,2 -4,2 -8,4 -16,-8 -12,-17 2,-3 9,-2 11,-5zm3 -1c0,-1 2,0 4,1 1,2 2,3 1,4 0,1 -2,0 -3,-1 -2,-2 -3,-3 -2,-4z"/><path class="fil0" d="M41 340c-8,3 -6,-6 -15,1 -3,2 -4,9 -4,12 1,5 5,9 10,11 8,3 16,-1 19,-8 3,-8 -2,-19 -10,-16zm3 2c-1,0 0,2 1,4 1,1 3,1 3,0 1,0 1,-2 -1,-3 -1,-2 -3,-2 -3,-1z"/><path class="fil0" d="M265 310c-10,1 -23,3 -24,-11 6,5 12,7 18,9 -7,-3 -13,-6 -17,-10 12,-5 21,3 23,12z"/><path class="fil0" d="M356 178c-4,-3 -8,2 -10,7 -1,6 2,21 11,18 2,-1 4,0 6,0 10,4 16,-17 8,-24 -4,-3 -11,2 -15,-1zm12 2c1,-1 3,1 4,3 1,2 1,4 0,5 -1,0 -3,-1 -4,-3 -1,-3 -1,-5 0,-5z"/><path class="fil0" d="M484 135c4,-3 9,1 10,7 1,5 0,17 -10,17 -1,0 -2,-1 -4,-1 -1,-1 -2,1 -4,1 -10,0 -14,-17 -5,-23 3,-3 10,2 13,-1zm4 1c1,-1 2,1 3,3 1,2 1,4 0,4 -1,1 -2,-1 -3,-3 -1,-2 -1,-4 0,-4z"/><path class="fil0" d="M449 111c2,-3 7,-1 10,2 3,4 6,15 -2,18 -1,0 -2,0 -3,0 -1,1 -2,2 -4,3 -8,4 -16,-8 -12,-17 2,-4 9,-2 11,-6zm3 0c0,-1 2,0 4,1 1,1 2,3 1,4 0,0 -2,0 -3,-2 -2,-1 -3,-3 -2,-3z"/><path class="fil0" d="M545 195c6,5 8,-4 14,6 2,3 0,10 -1,13 -3,5 -8,7 -14,7 -8,0 -14,-7 -14,-15 0,-8 8,-17 15,-11zm-3 0c0,1 -1,3 -3,4 -2,0 -3,0 -4,-1 0,-1 1,-2 3,-3 2,-1 3,-1 4,0z"/><path class="fil0" d="M507 206c-4,-3 -8,1 -10,7 -1,6 2,21 12,17 1,0 3,0 5,1 10,3 17,-17 8,-25 -4,-3 -11,2 -15,0zm12 1c1,0 3,1 4,3 1,3 1,5 0,5 -1,1 -2,-1 -3,-3 -2,-2 -2,-4 -1,-5z"/><path class="fil0" d="M563 246c4,-2 7,3 7,8 0,5 -4,15 -12,12 -2,0 -2,-1 -3,-1 -1,-1 -3,0 -5,-1 -9,-2 -8,-17 1,-21 4,-2 9,4 12,3zm3 1c1,0 2,2 2,4 1,2 0,3 -1,4 -1,0 -2,-2 -2,-4 0,-2 0,-4 1,-4z"/><path class="fil0" d="M234 113c2,-3 7,-2 10,2 3,4 6,14 -2,18 -1,0 -2,0 -3,0 -1,0 -2,2 -4,3 -8,3 -17,-9 -12,-17 1,-4 9,-3 11,-6zm3 -1c0,0 2,0 3,2 2,1 3,3 2,3 0,1 -2,0 -4,-1 -1,-1 -2,-3 -1,-4z"/><path class="fil0" d="M273 132c4,0 5,5 4,10 -1,5 -8,13 -15,8 -1,0 -2,-1 -3,-2 0,-1 -2,-1 -4,-2 -8,-4 -3,-18 7,-20 4,0 7,7 11,6zm2 2c1,0 2,2 1,4 0,2 -1,4 -2,4 -1,0 -1,-2 -1,-4 0,-2 1,-4 2,-4z"/><path class="fil0" d="M314 139c-7,5 -8,-4 -14,6 -2,3 0,10 1,13 3,4 8,6 13,6 8,0 15,-6 15,-14 0,-8 -8,-17 -15,-11zm3 0c0,1 1,3 3,3 1,1 3,1 3,0 1,-1 -1,-3 -2,-3 -2,-1 -4,-1 -4,0z"/><path class="fil0" d="M386 200c-7,6 -8,-4 -14,6 -2,4 0,11 1,13 3,5 8,7 13,7 9,0 15,-7 15,-15 0,-8 -8,-17 -15,-11zm3 0c0,2 1,3 3,4 1,0 3,0 3,-1 1,-1 -1,-2 -2,-3 -2,-1 -4,-1 -4,0z"/><path class="fil0" d="M442 198c-9,-1 -3,-9 -14,-6 -4,1 -8,7 -9,9 -1,6 1,11 5,15 5,5 14,6 20,0 6,-6 7,-17 -2,-18zm2 2c-1,1 -2,2 -1,4 1,2 2,3 3,2 1,0 1,-2 1,-4 -1,-1 -2,-2 -3,-2z"/><path class="fil0" d="M399 177c-2,10 -6,23 -19,19 6,-4 11,-8 15,-14 -5,6 -11,10 -16,13 0,-13 11,-19 20,-18z"/><path class="fil0" d="M513 302c-4,-3 -9,1 -10,7 -1,5 2,20 11,17 2,0 4,0 6,1 10,3 16,-18 8,-25 -4,-3 -12,2 -15,0zm12 1c1,0 3,1 4,3 1,3 1,5 0,5 -1,1 -3,-1 -4,-3 -1,-2 -1,-4 0,-5z"/><path class="fil0" d="M621 302c-9,3 -7,-6 -16,1 -3,2 -4,9 -3,12 1,5 5,9 10,11 7,3 15,-1 18,-8 3,-8 -1,-19 -9,-16zm2 1c0,1 0,3 1,4 2,2 3,2 4,1 1,-1 0,-2 -1,-4 -2,-1 -3,-1 -4,-1z"/><path class="fil0" d="M610 332c-3,-3 -8,1 -10,7 -1,6 2,21 12,17 1,0 3,0 5,1 10,3 17,-17 8,-25 -4,-3 -11,3 -15,0zm13 1c0,0 2,1 3,4 1,2 1,4 0,4 -1,1 -2,-1 -3,-3 -1,-2 -1,-4 0,-5z"/><path class="fil0" d="M477 305c7,6 8,-3 14,7 2,3 1,10 -1,12 -3,5 -8,7 -13,7 -8,0 -15,-6 -15,-14 0,-9 9,-17 15,-12zm-3 1c1,1 -1,2 -2,3 -2,1 -4,1 -4,0 0,-1 1,-3 3,-4 1,0 3,0 3,1z"/><path class="fil0" d="M508 334c-9,3 -7,-6 -16,1 -3,2 -4,9 -3,12 0,6 4,10 9,11 8,3 16,0 19,-8 3,-7 -1,-18 -9,-16zm2 2c-1,1 0,2 1,4 2,1 3,2 4,1 1,-1 0,-3 -1,-4 -2,-2 -3,-2 -4,-1z"/><path class="fil0" d="M502 295c-5,6 -13,15 -21,6 6,0 11,-1 16,-4 -6,2 -11,3 -16,4 5,-10 15,-10 21,-6z"/><path class="fil0" d="M264 362c10,-4 24,-9 28,5 -6,-3 -14,-4 -21,-4 8,1 15,3 21,6 -11,8 -23,2 -28,-7z"/><path class="fil0" d="M292 373c8,2 6,-7 15,0 3,2 5,9 4,12 -1,5 -4,9 -9,11 -8,4 -16,0 -19,-7 -4,-8 0,-19 9,-16zm-3 1c1,1 0,3 -1,4 -1,2 -3,2 -3,1 -1,0 -1,-2 1,-4 1,-1 2,-1 3,-1z"/><path class="fil0" d="M443 252c-10,-2 -25,-5 -27,10 7,-4 13,-7 21,-8 -8,2 -15,6 -20,9 13,6 23,-1 26,-11z"/><path class="fil0" d="M418 267c-8,4 -7,-5 -15,3 -3,3 -3,10 -2,13 2,5 6,8 11,9 8,2 16,-3 18,-10 2,-8 -4,-19 -12,-15zm3 1c-1,1 0,3 2,4 1,1 3,1 3,1 1,-1 0,-3 -1,-4 -2,-1 -4,-1 -4,-1z"/><path class="fil0" d="M455 69c-6,6 -8,-4 -14,6 -2,4 0,11 1,13 3,5 8,7 14,7 8,0 14,-7 14,-15 0,-8 -8,-17 -15,-11zm3 0c0,2 1,3 3,4 1,0 3,0 3,-1 1,-1 0,-2 -2,-3 -2,-1 -3,-1 -4,0z"/><path class="fil0" d="M154 243c9,2 7,-7 16,0 3,2 4,9 4,12 -1,5 -4,9 -9,11 -8,4 -16,0 -20,-7 -3,-7 1,-19 9,-16zm-2 1c1,1 0,3 -1,4 -1,2 -3,2 -4,1 0,0 0,-2 1,-4 2,-1 3,-1 4,-1z"/><path class="fil0" d="M231 240c-16,1 -32,1 -46,-9 -9,-6 -13,-11 -25,-14 -4,0 -7,0 -11,-2 -4,-1 -7,-1 -10,-2 -5,-1 -10,-4 -14,-5 -2,0 -3,0 -1,2 3,1 12,7 12,9 1,2 -3,4 -5,6 -3,2 -5,4 -8,6l-1 1c-2,1 -3,1 -4,2 -3,2 -6,3 -9,5 -5,3 -9,3 -14,1 -5,-3 -8,-8 -14,-9 -4,0 -6,-1 -8,-6 -2,-5 0,-8 0,-13 0,-3 -1,-11 -2,-13 -1,-3 -1,8 -1,8 0,8 -3,10 -5,17 -2,6 -4,8 -8,13 -4,5 -6,12 -9,17l-1 1c2,0 3,-1 4,-3 5,-5 9,-15 17,-13 5,1 11,3 14,8 0,0 0,1 1,1 1,6 -4,7 -8,10 -15,8 0,5 -23,23 -5,5 -6,5 -8,12 -1,5 -3,10 -3,15 -1,6 0,8 1,14 3,9 -5,8 -6,15 0,1 3,-2 3,-2 1,-1 3,-2 4,-4 5,-5 1,-10 1,-16 0,-6 3,-14 5,-19 2,-5 4,-6 8,-8 2,-2 4,-3 6,-5 4,-3 8,-10 12,-14 1,-2 2,-3 4,-4 5,-2 10,1 16,-3 5,-4 8,-7 14,-10 8,-4 16,-8 24,-13 20,-12 28,-8 46,4 17,11 26,11 46,11 17,1 30,4 18,23 -6,10 -17,9 -27,9 -6,0 -12,0 -17,1 -9,0 -13,-4 -21,-8 -11,-5 -13,-4 -24,3 -5,3 -16,0 -21,-2 -4,-2 -6,-2 -9,1 -4,4 -3,7 -2,11 0,3 -2,6 -5,7 0,1 -9,4 -7,4 2,1 9,-1 10,-2 3,-2 5,-6 4,-10 0,-2 0,-2 0,-4 1,-3 4,-4 6,-3 2,0 4,1 6,2 5,2 15,5 20,2 5,-3 8,-6 14,-4 3,2 10,7 7,12 0,1 -2,2 -3,4 -2,3 -4,6 -5,9l0 1c-10,19 -18,28 -39,34 -10,3 -26,5 -34,10 -6,4 -10,9 -17,12 -5,3 3,1 4,0 5,-2 10,-6 16,-9 7,-3 18,-5 26,-7 4,-1 8,-2 12,-3 18,-5 26,-15 35,-31 4,-7 6,-12 12,-17 5,-4 7,-4 13,-4 14,-1 34,5 47,1 13,-4 21,-20 38,-12 3,1 4,2 6,5 4,6 -1,16 -2,23 -1,6 -3,24 -2,30 12,14 65,34 62,84 -1,35 -10,68 -13,75 -14,45 -164,33 -195,48l437 0c-24,-21 -158,0 -178,-43 -9,-22 -9,-58 -8,-85 1,-16 8,-31 16,-45 7,-13 6,-25 17,-36 11,-12 25,-41 38,-44 4,-1 7,-1 11,-2 10,-3 15,-9 22,-17 6,-6 13,-13 21,-17 9,-3 15,-1 22,5 2,2 8,8 7,11 0,4 -5,8 -8,11 -5,6 -8,13 -2,20 6,8 15,8 24,12 5,2 8,4 13,7 2,1 3,-1 0,-4 -6,-3 -13,-6 -20,-8 -5,-2 -11,-4 -14,-10 -3,-7 3,-15 8,-19 8,-8 7,-11 0,-20 -2,-4 -4,-6 -7,-10 -2,-2 -6,-7 -5,-10l0 0c0,-1 1,-3 1,-4 4,-7 6,-10 15,-8 7,0 11,1 17,3l0 1c6,3 9,6 13,11 4,4 7,4 9,10 1,2 1,5 2,7 1,5 5,6 7,11 4,10 8,15 18,19 6,2 12,3 18,5 5,2 6,3 10,5 8,4 10,0 15,-3 0,-2 -1,-5 -1,-7 -5,2 -8,8 -15,4l-1 -1c-5,-3 -14,-4 -20,-6 -9,-3 -16,-8 -20,-17 -1,-3 -2,-5 -3,-8 -2,-5 -2,-7 -4,-11 -1,-5 -4,-9 3,-11 5,-1 6,0 10,-3 4,-3 6,-3 9,-5 7,-3 2,-12 11,-12 1,0 1,0 2,1 1,0 2,0 2,1 2,1 3,2 5,2 -3,-2 -4,-3 -7,-4 -4,-3 -9,-1 -12,4 -2,4 -1,5 -7,8 -2,0 -4,1 -6,2 -3,1 -7,0 -11,0 -6,-1 -10,0 -15,-4l-1 -1c-8,-5 -12,-6 -10,-17 0,-4 3,-12 7,-16 4,-5 10,-6 16,-7 4,0 7,0 11,0 8,1 9,-7 12,-12 2,-3 -1,-1 -2,1 -3,3 -4,8 -11,7 -7,-1 -12,0 -19,2 -8,3 -12,7 -15,14 -2,3 -4,7 -6,11 -2,4 -4,6 -8,7 -1,0 -2,0 -3,0 -2,-1 -5,-1 -7,0 -6,0 -10,3 -13,8 -7,9 -5,13 -17,17 -19,8 -21,16 -36,26 -13,9 -14,-11 -13,-18 1,-13 5,-27 5,-41 0,-3 0,-20 0,-22 2,-8 15,-9 21,-13 7,-4 10,-8 16,-14 5,-5 13,-4 20,-4 6,0 17,0 22,-2 4,-3 5,-7 10,-9 2,-1 9,-5 11,-5 0,0 2,0 1,-1 -2,-2 -9,2 -11,3 -6,2 -5,3 -9,6 -4,4 -8,4 -13,3 -3,0 -14,-1 -13,-6 1,-1 3,-3 4,-4 1,-1 3,-2 4,-3 7,-7 11,-14 13,-24 0,0 -1,-1 -1,-1 -6,-7 -7,-13 -16,-18 -8,-4 -11,-6 -15,-15 -5,-12 -2,-1 0,3 3,8 7,11 14,16 3,2 4,4 6,8 2,5 3,12 0,18l-1 1c-7,10 -22,17 -31,26 -2,3 -4,5 -7,8 -5,4 -10,8 -17,9 -4,2 -5,-2 -6,-5 -1,-4 -2,-10 -2,-14 -3,-15 -3,-17 3,-31 1,-5 2,-9 0,-13 -5,-11 -24,-10 -32,-18 -4,-5 -6,-10 -6,-16 0,-2 1,-17 -2,-16 -1,1 -1,4 0,5 0,11 -2,18 5,28 5,5 11,6 17,9 5,1 13,4 14,10 2,6 -1,10 -4,15 -6,15 -2,22 -2,36 0,9 0,14 -4,22 -4,7 -3,12 -3,20 -2,29 -7,56 -20,83 -1,2 -2,4 -4,6 -3,8 -7,15 -11,22 -2,6 -24,28 -32,28 -5,0 -3,-9 -4,-13 -2,-8 9,-27 9,-35 -1,-14 1,-21 6,-34 5,-12 12,-17 17,-32 4,-15 3,-22 -1,-37 -4,-17 -1,-32 -4,-48 -1,-4 -2,-7 -3,-11 -3,-9 -1,-16 0,-25 0,-9 -1,-15 -6,-22 -4,-5 -10,-7 -13,-12 -2,-2 -5,-5 -6,-8 -1,-2 -4,-1 -2,3 3,4 6,8 10,11 6,4 9,7 11,14 2,5 2,13 -1,17 -1,2 -3,3 -5,3 -1,0 -4,-3 -5,-4 -4,-3 -7,-5 -11,-7 -13,-6 -16,-12 -26,-22 -2,-3 -4,-5 -7,-7 -4,-4 -7,-10 -9,-15 -2,-3 -3,-6 -5,-9 0,-2 -1,-1 -1,0 0,3 3,12 0,13 -1,1 -4,0 -5,-1 -9,-3 -20,-4 -29,-7l-1 -1c-1,0 -5,-1 -6,-1 -12,-2 -12,2 -23,4 -5,1 -11,1 -16,2 -5,0 1,1 2,1 8,-1 16,-1 23,-3 8,-3 10,-1 18,2 8,2 15,4 22,6 0,0 1,0 1,0 18,5 25,11 36,25 10,12 12,13 25,20 8,5 15,12 18,20 6,12 6,23 6,36 0,13 0,19 2,32 2,15 -2,29 -14,39 -9,7 -14,27 -24,16 -11,-13 -22,-30 -25,-46 -3,-10 -2,-18 2,-27 3,-8 5,-14 6,-23 1,-5 5,-9 8,-14 2,-5 -6,3 -11,-2l0 -1c-3,-3 -5,-6 -8,-10l-1 0c-6,-8 -11,-8 -20,-10 -5,-1 -12,-4 -17,-8 -2,-1 -10,-7 -13,-6 0,1 2,1 3,2 3,2 5,4 8,7 6,5 13,9 21,10 7,2 11,3 14,9 5,10 10,21 2,31 -1,1 -1,1 -2,2 -13,6 -38,-9 -54,-12 -9,-1 -17,-1 -26,-2 -6,0 -13,-1 -18,-5 -7,-5 -10,-11 -13,-18 -2,-5 -3,-8 -2,-13 1,-15 -10,-8 -11,-19 0,-3 0,-6 -2,-8 -1,-1 -1,-1 -1,0 0,1 1,4 1,6 0,5 -1,8 3,12 5,3 6,4 5,10 0,3 0,4 0,7 1,3 3,13 2,15 -2,2 -6,1 -8,1 -14,-1 -29,4 -43,7l0 0c-7,0 -16,-1 -22,-5 -6,-4 -5,-8 -2,-14 4,-9 -4,-9 8,-18 2,-1 8,-6 2,-3 -6,3 -12,5 -12,12 0,3 0,5 -2,8 -1,0 -2,1 -2,2 -2,2 -4,6 -5,8 0,1 4,10 4,12 0,1 -1,1 -1,2 -1,1 -8,4 -11,5 -4,2 -5,4 -9,7 -2,2 -4,2 -6,2 -1,1 -2,2 -3,4 2,0 4,1 7,1 6,1 6,-3 10,-6 3,-4 11,-6 16,-8 6,-1 5,-4 14,-4 6,1 8,1 15,0 4,-1 7,-1 10,-2 18,-3 30,-7 48,1 4,2 7,4 11,6 12,5 20,4 32,7 17,3 28,12 39,24 8,9 17,20 16,33 -2,19 13,25 23,39 5,7 9,16 13,24 11,23 -14,35 -8,52 1,2 -2,25 -12,18 -9,-7 -16,-14 -26,-20 -13,-9 -5,-28 -5,-44 1,-15 0,-20 -13,-27 -7,-4 -13,-6 -19,-10 -5,-3 -9,-6 -13,-9 -7,-4 -8,-12 -9,-19 -1,-11 -10,-17 -18,-23 -1,-2 -2,-3 -4,-4 1,2 2,4 3,5 6,6 15,13 13,22 -1,3 -4,11 -8,11 -1,0 -4,-1 -6,-1 -1,0 -1,0 -2,0z"/><path class="fil0" d="M349 0c-8,7 -20,17 -8,28 0,-8 2,-15 6,-22 -3,9 -5,16 -5,23 13,-7 13,-21 7,-29z"/><path class="fil0" d="M457 18c1,10 2,24 -13,24 5,-5 8,-12 10,-19 -3,8 -7,14 -11,18 -4,-13 5,-22 14,-23z"/><path class="fil0" d="M419 1c-4,9 -11,22 3,27 -3,-7 -3,-14 -3,-21 1,8 2,15 4,21 9,-10 4,-22 -4,-27z"/><path class="fil0" d="M378 3c-5,9 -11,22 3,27 -3,-7 -4,-14 -3,-21 0,8 2,15 4,21 9,-11 4,-22 -4,-27z"/><path class="fil0" d="M197 34c0,11 -1,26 15,26 -6,-6 -9,-13 -12,-20 4,8 8,14 13,19 4,-14 -6,-24 -16,-25z"/></g><text x="0" y="564" fill="#000000" font-size="5px" font-weight="bold" font-family="'Helvetica Neue', Helvetica, Arial-Unicode, Arial, Sans-serif">Created by ani rofiqah</text><text x="0" y="569" fill="#000000" font-size="5px" font-weight="bold" font-family="'Helvetica Neue', Helvetica, Arial-Unicode, Arial, Sans-serif">from the Noun Project</text></svg>