<?xml version="1.0" ?><!DOCTYPE svg  PUBLIC '-//W3C//DTD SVG 1.1//EN'  'http://www.w3.org/Graphics/SVG/1.1/DTD/svg11.dtd'><svg enable-background="new 0 0 128 128" height="128px" id="Layer_1" version="1.1" viewBox="0 0 128 128" width="128px" xml:space="preserve" xmlns="http://www.w3.org/2000/svg" xmlns:xlink="http://www.w3.org/1999/xlink"><circle cx="64" cy="64" fill="#CC2323" r="64"/><g><path d="M30.211,36.85h-2.124c-1.189,0-2.235,0.13-3.109,0.387c-0.895,0.262-1.661,0.718-2.275,1.353   c-0.613,0.636-1.078,1.495-1.379,2.553c-0.299,1.039-0.449,2.38-0.449,3.982c0,2.336,0.085,4.541,0.251,6.554   c0.164,2.01,0.247,4.159,0.247,6.384c0,0.599-0.071,1.187-0.209,1.747c-0.136,0.54-0.388,1.027-0.753,1.45   c-0.366,0.424-0.889,0.778-1.552,1.049c-0.672,0.277-1.541,0.417-2.583,0.417C16.125,62.726,16,62.849,16,63v2   c0,0.15,0.124,0.275,0.276,0.275c1.037,0,1.905,0.14,2.583,0.416c0.665,0.271,1.188,0.629,1.552,1.051   c0.363,0.424,0.616,0.93,0.752,1.509c0.14,0.604,0.21,1.212,0.21,1.812c0,2.146-0.083,4.25-0.247,6.264   c-0.167,2.013-0.251,4.219-0.251,6.553c0,1.604,0.151,2.939,0.449,3.979c0.302,1.062,0.766,1.918,1.379,2.557   c0.614,0.637,1.381,1.093,2.274,1.354c0.873,0.254,1.92,0.388,3.11,0.388h2.124c0.152,0,0.276-0.128,0.276-0.274v-1.812   c0-0.149-0.125-0.273-0.276-0.273h-1.937c-1.807,0-3.022-0.479-3.611-1.434c-0.615-0.987-0.927-2.579-0.927-4.729   c0-2.024,0.063-3.985,0.187-5.825c0.125-1.849,0.189-3.929,0.189-6.176c0-1.814-0.228-3.302-0.677-4.416   c-0.418-1.037-1.192-1.779-2.303-2.208c1.108-0.427,1.882-1.145,2.301-2.144c0.45-1.07,0.679-2.578,0.679-4.482   c0-2.248-0.063-4.324-0.189-6.174c-0.125-1.837-0.187-3.795-0.187-5.826c0-2.146,0.312-3.737,0.927-4.73   c0.59-0.95,1.804-1.432,3.611-1.432h1.937c0.152,0,0.276-0.123,0.276-0.272V37.13C30.487,36.974,30.364,36.85,30.211,36.85z" fill="#FFFFFF"/><path d="M111.727,62.726c-1.043,0-1.912-0.139-2.586-0.417c-0.664-0.272-1.188-0.625-1.553-1.049   c-0.363-0.422-0.619-0.911-0.754-1.45c-0.137-0.554-0.207-1.14-0.207-1.747c0-2.249,0.084-4.396,0.248-6.384   c0.168-2.027,0.25-4.229,0.25-6.554c0-1.599-0.148-2.938-0.445-3.981c-0.305-1.058-0.768-1.918-1.381-2.554   c-0.615-0.636-1.385-1.091-2.277-1.353c-0.873-0.256-1.92-0.387-3.104-0.387H97.79c-0.151,0-0.274,0.124-0.274,0.276v1.812   c0,0.153,0.123,0.274,0.274,0.274h1.938c1.804,0,3.019,0.481,3.605,1.432c0.613,0.993,0.932,2.583,0.932,4.73   c0,2.027-0.062,3.986-0.188,5.826c-0.123,1.851-0.188,3.929-0.188,6.174c0,1.909,0.24,3.417,0.713,4.486   c0.438,0.996,1.203,1.713,2.275,2.139c-1.074,0.43-1.842,1.169-2.279,2.204c-0.471,1.111-0.709,2.6-0.709,4.421   c0,2.246,0.064,4.325,0.188,6.175c0.127,1.84,0.188,3.801,0.188,5.826c0,2.146-0.312,3.739-0.932,4.729   c-0.59,0.95-1.803,1.435-3.605,1.435H97.79c-0.151,0-0.274,0.124-0.274,0.272v1.813c0,0.149,0.123,0.274,0.274,0.274h2.125   c1.19,0,2.233-0.131,3.106-0.39c0.894-0.261,1.662-0.717,2.275-1.354c0.613-0.64,1.074-1.493,1.383-2.556   c0.297-1.043,0.443-2.385,0.443-3.979c0-2.32-0.082-4.521-0.25-6.556c-0.164-1.983-0.248-4.094-0.248-6.262   c0-0.604,0.068-1.214,0.209-1.811c0.139-0.578,0.391-1.085,0.752-1.51c0.363-0.422,0.889-0.773,1.555-1.049   c0.68-0.277,1.549-0.418,2.586-0.418c0.15,0,0.271-0.125,0.271-0.274v-2C112,62.848,111.879,62.726,111.727,62.726z" fill="#FFFFFF"/></g><g><path d="M55.178,42.931h-5.209c-0.401,0-0.726,0.326-0.726,0.726v28.219c0,2.917-0.488,5.008-1.454,6.214   c-0.938,1.175-2.354,1.744-4.333,1.744c-1.303,0-2.487-0.329-3.522-0.975c-1.049-0.654-2.009-1.749-2.853-3.244   c-0.101-0.178-0.272-0.307-0.472-0.35c-0.2-0.045-0.41-0.006-0.577,0.112l-3.721,2.606c-0.305,0.213-0.398,0.621-0.219,0.944   c2.522,4.568,6.514,6.885,11.861,6.885c2.08,0,3.903-0.354,5.422-1.059c1.527-0.707,2.786-1.699,3.744-2.945   c0.941-1.225,1.65-2.675,2.107-4.31c0.451-1.605,0.68-3.331,0.68-5.126V43.658C55.904,43.257,55.579,42.931,55.178,42.931z" fill="#FFFFFF"/><path d="M91.302,69.292c-0.463-1.211-1.102-2.286-1.901-3.197c-0.787-0.896-1.737-1.693-2.829-2.373   c-1.065-0.658-2.204-1.249-3.384-1.754l-5.785-2.488c-0.812-0.324-1.608-0.682-2.365-1.061c-0.74-0.37-1.428-0.803-2.047-1.289   c-0.584-0.454-1.054-0.988-1.399-1.587c-0.326-0.567-0.492-1.29-0.492-2.151c0-1.636,0.586-2.876,1.791-3.793   c1.251-0.951,2.949-1.434,5.052-1.434c1.788,0,3.409,0.323,4.817,0.958c1.424,0.644,2.742,1.546,3.917,2.683   c0.146,0.14,0.339,0.207,0.545,0.204c0.201-0.012,0.391-0.106,0.518-0.261L90.53,48.4c0.237-0.286,0.221-0.704-0.039-0.971   c-1.506-1.548-3.353-2.821-5.494-3.784c-2.151-0.968-4.526-1.46-7.058-1.46c-1.934,0-3.735,0.286-5.355,0.847   c-1.627,0.563-3.062,1.369-4.265,2.396c-1.211,1.033-2.169,2.271-2.849,3.677c-0.686,1.417-1.035,2.962-1.035,4.597   c0,1.582,0.271,3.005,0.806,4.228c0.525,1.211,1.219,2.273,2.061,3.156c0.826,0.873,1.779,1.626,2.828,2.236   c1.018,0.594,2.024,1.108,2.99,1.529l5.807,2.532c0.947,0.454,1.832,0.888,2.656,1.298c0.768,0.386,1.438,0.82,1.989,1.298   c0.522,0.451,0.942,0.998,1.249,1.627c0.304,0.622,0.453,1.403,0.453,2.318c0,1.774-0.641,3.163-1.964,4.246   c-1.35,1.104-3.301,1.666-5.806,1.666c-1.991,0-3.941-0.446-5.799-1.326c-1.873-0.888-3.521-2.076-4.898-3.532   c-0.143-0.149-0.344-0.236-0.545-0.228c-0.205,0.006-0.4,0.099-0.532,0.252l-3.102,3.6c-0.245,0.281-0.234,0.705,0.024,0.974   c1.835,1.922,4.042,3.459,6.558,4.565c2.518,1.109,5.289,1.671,8.231,1.671c2.219,0,4.24-0.315,6.01-0.94   c1.773-0.626,3.315-1.507,4.58-2.621c1.269-1.116,2.26-2.438,2.942-3.933c0.682-1.497,1.025-3.121,1.025-4.829   C92.001,71.919,91.766,70.507,91.302,69.292z" fill="#FFFFFF"/></g></svg>